<svg id="Layer_1" data-name="Layer 1" xmlns="http://www.w3.org/2000/svg" viewBox="0 0 500 200"><defs><style>.cls-1{fill:#7bc3a0;}.cls-2{fill:#252a5a;}</style></defs><polygon class="cls-1" points="65.52 100.31 46.8 100.31 46.8 128.39 65.52 128.39 65.52 156.47 93.6 156.47 93.6 128.39 112.32 128.39 112.32 100.31 93.6 100.31 65.52 100.31"/><path class="cls-2" d="M0,80.89v75.58H37.44V104.29a22.74,22.74,0,0,1,21.41-22.7c.44,0,.89,0,1.34,0s.89,0,1.33,0h50.8V44.15H34.1A36.84,36.84,0,0,0,0,80.89Z"/><rect class="cls-2" x="139.25" y="45.05" width="27.81" height="110.71"/><path class="cls-2" d="M263,53c-8.73-5.27-21.66-7.94-38.4-7.94H196.89V155.76h28.16c16.31,0,26.1-1.72,34.89-6.11,17.17-8.43,27.42-26.77,27.42-49C287.36,79.66,278.49,62.29,263,53ZM224.7,128.77V72c10.75,0,16.45,1,21.58,3.63,8.22,4.23,13.13,13.55,13.13,24.94,0,10.73-4.76,20-12.45,24.19C242.17,127.48,235.1,128.75,224.7,128.77Z"/><path class="cls-2" d="M394.86,45.05V114c0,26.88-14.91,43.58-38.91,43.58s-38.76-16.7-38.76-43.58V45.05H345V114c0,15.19,5.48,16.45,11.09,16.45,5.29,0,11-1.26,11-16.45V45.05Z"/><path class="cls-2" d="M500,120.44a36.65,36.65,0,0,1-37,37.11c-20.89,0-36.12-14-37.91-34.94l-.42-4.85h28.63l.39,4c.6,6.21,3.21,8.62,9.31,8.62,5.65,0,9.3-3.11,9.3-7.91a8.5,8.5,0,0,0-2.94-6.79c-2.42-1.87-2.89-2.07-16.38-7.17-15.63-5.84-24.19-17.16-24.19-31.9,0-18.41,15.28-33.39,34.08-33.39,19.34,0,33.57,13.63,34.63,33.14l.25,4.72H469.36L469,77c-.47-5.87-3.6-6.61-6.28-6.61-3.69,0-6,2.24-6,5.85,0,.79,0,3.2,3.56,5.44.91.54,1.09.65,10.46,4.13C491.81,93.66,500,103.37,500,120.44Z"/></svg>