<svg id="Layer_1" data-name="Layer 1" xmlns="http://www.w3.org/2000/svg" viewBox="0 0 500 200"><defs><style>.cls-1{fill:#7bc3a0;}.cls-2{fill:#f2f2f2;}</style></defs><polygon class="cls-1" points="65.52 100.54 46.8 100.54 46.8 128.62 65.52 128.62 65.52 156.7 93.6 156.7 93.6 128.62 112.32 128.62 112.32 100.54 93.6 100.54 65.52 100.54"/><path class="cls-2" d="M0,81.12V156.7H37.44V104.52a22.75,22.75,0,0,1,21.41-22.7c.44,0,.89,0,1.34,0s.89,0,1.33,0h50.8V44.38H34.1A36.84,36.84,0,0,0,0,81.12Z"/><rect class="cls-2" x="139.25" y="45.28" width="27.81" height="110.71"/><path class="cls-2" d="M263,53.22c-8.73-5.27-21.66-7.94-38.4-7.94H196.89V156h28.16c16.31,0,26.1-1.72,34.89-6.1,17.17-8.44,27.42-26.77,27.42-49C287.36,79.89,278.49,62.52,263,53.22ZM224.7,129V72.27c10.75,0,16.45,1,21.58,3.63,8.22,4.23,13.13,13.55,13.13,24.94,0,10.73-4.76,20-12.45,24.19C242.17,127.71,235.1,129,224.7,129Z"/><path class="cls-2" d="M394.86,45.28V114.2c0,26.88-14.91,43.58-38.91,43.58s-38.76-16.7-38.76-43.58V45.28H345V114.2c0,15.19,5.48,16.45,11.09,16.45,5.29,0,11-1.26,11-16.45V45.28Z"/><path class="cls-2" d="M500,120.67a36.65,36.65,0,0,1-37,37.11c-20.89,0-36.12-14-37.91-34.94l-.42-4.85h28.63l.39,4c.6,6.21,3.21,8.62,9.31,8.62,5.65,0,9.3-3.1,9.3-7.91a8.51,8.51,0,0,0-2.94-6.79c-2.42-1.87-2.89-2.07-16.38-7.17-15.63-5.84-24.19-17.16-24.19-31.9,0-18.41,15.28-33.39,34.08-33.39,19.34,0,33.57,13.64,34.63,33.15l.25,4.71H469.36L469,77.24c-.47-5.88-3.6-6.62-6.28-6.62-3.69,0-6,2.24-6,5.85,0,.79,0,3.2,3.56,5.44.91.54,1.09.65,10.46,4.13C491.81,93.89,500,103.61,500,120.67Z"/></svg>